<?xml version="1.0" encoding="utf-8"?>
<!-- Generator: Adobe Illustrator 21.0.0, SVG Export Plug-In . SVG Version: 6.00 Build 0)  -->
<svg version="1.1" id="Capa_1" xmlns="http://www.w3.org/2000/svg" xmlns:xlink="http://www.w3.org/1999/xlink" x="0px" y="0px"
	 viewBox="0 0 70 70" style="enable-background:new 0 0 70 70;" xml:space="preserve">
<style type="text/css">
	.st0{fill:#FFFFFF;}
	.st1{fill:#F2F2F2;}
	.st2{fill:#9F141B;}
	.st3{clip-path:url(#SVGID_4_);fill:url(#SVGID_5_);}
	.st4{clip-path:url(#SVGID_9_);fill:url(#SVGID_10_);}
	.st5{clip-path:url(#SVGID_12_);fill:url(#SVGID_13_);}
	.st6{opacity:0.6;clip-path:url(#SVGID_12_);}
	.st7{opacity:0.6;}
	.st8{clip-path:url(#SVGID_15_);}
	.st9{opacity:0.6;clip-path:url(#SVGID_12_);fill:url(#SVGID_16_);}
	.st10{fill:#9F211B;}
	.st11{opacity:0.8;fill:#FFFFFF;}
	.st12{fill:none;}
	.st13{clip-path:url(#SVGID_22_);fill:url(#SVGID_23_);}
	.st14{opacity:0.6;clip-path:url(#SVGID_22_);}
	.st15{clip-path:url(#SVGID_25_);}
	.st16{opacity:0.6;clip-path:url(#SVGID_22_);fill:url(#SVGID_26_);}
	.st17{fill:#D9D9D9;}
	.st18{fill:url(#SVGID_27_);}
	.st19{fill:#040006;}
	.st20{clip-path:url(#SVGID_29_);fill:#FFFFFF;}
	.st21{clip-path:url(#SVGID_31_);fill:#040006;}
	.st22{fill:url(#SVGID_32_);}
	.st23{clip-path:url(#SVGID_34_);}
	.st24{opacity:0.7;fill:url(#SVGID_35_);}
	.st25{opacity:0.3;fill:url(#SVGID_36_);}
	.st26{opacity:0.9;fill:url(#SVGID_37_);}
	.st27{opacity:0.7;fill:url(#SVGID_38_);}
	.st28{opacity:0.9;fill:url(#SVGID_39_);}
	.st29{opacity:0.7;fill:url(#SVGID_40_);}
	.st30{opacity:0.9;fill:url(#SVGID_41_);}
	.st31{opacity:0.7;fill:url(#SVGID_42_);}
	.st32{opacity:0.9;fill:url(#SVGID_43_);}
	.st33{opacity:0.3;fill:url(#SVGID_44_);}
	.st34{opacity:0.9;fill:url(#SVGID_45_);}
	.st35{clip-path:url(#SVGID_47_);fill:url(#SVGID_48_);}
	.st36{opacity:0.6;clip-path:url(#SVGID_47_);}
	.st37{clip-path:url(#SVGID_50_);}
	.st38{opacity:0.6;clip-path:url(#SVGID_47_);fill:url(#SVGID_51_);}
	.st39{clip-path:url(#SVGID_53_);fill:url(#SVGID_54_);}
	.st40{opacity:0.6;clip-path:url(#SVGID_53_);}
	.st41{clip-path:url(#SVGID_56_);}
	.st42{opacity:0.6;clip-path:url(#SVGID_53_);fill:url(#SVGID_57_);}
	.st43{clip-path:url(#SVGID_59_);fill:url(#SVGID_60_);}
	.st44{opacity:0.6;clip-path:url(#SVGID_59_);}
	.st45{clip-path:url(#SVGID_62_);}
	.st46{opacity:0.6;clip-path:url(#SVGID_59_);fill:url(#SVGID_63_);}
	.st47{clip-path:url(#SVGID_65_);}
	.st48{clip-path:url(#SVGID_65_);fill:url(#SVGID_68_);}
	.st49{opacity:0.6;clip-path:url(#SVGID_65_);}
	.st50{clip-path:url(#SVGID_70_);}
	.st51{opacity:0.6;clip-path:url(#SVGID_65_);fill:url(#SVGID_71_);}
	.st52{clip-path:url(#SVGID_73_);}
	.st53{clip-path:url(#SVGID_73_);fill:url(#SVGID_76_);}
	.st54{opacity:0.6;clip-path:url(#SVGID_73_);}
	.st55{clip-path:url(#SVGID_78_);}
	.st56{opacity:0.6;clip-path:url(#SVGID_73_);fill:url(#SVGID_79_);}
	.st57{clip-path:url(#SVGID_81_);fill:url(#SVGID_82_);}
	.st58{opacity:0.6;clip-path:url(#SVGID_81_);}
	.st59{clip-path:url(#SVGID_84_);}
	.st60{opacity:0.6;clip-path:url(#SVGID_81_);fill:url(#SVGID_85_);}
	.st61{clip-path:url(#SVGID_87_);fill:url(#SVGID_88_);}
	.st62{opacity:0.6;clip-path:url(#SVGID_87_);}
	.st63{clip-path:url(#SVGID_90_);}
	.st64{opacity:0.6;clip-path:url(#SVGID_87_);fill:url(#SVGID_91_);}
	.st65{clip-path:url(#SVGID_93_);fill:url(#SVGID_94_);}
	.st66{opacity:0.6;clip-path:url(#SVGID_93_);}
	.st67{clip-path:url(#SVGID_96_);}
	.st68{opacity:0.6;clip-path:url(#SVGID_93_);fill:url(#SVGID_97_);}
	.st69{clip-path:url(#SVGID_99_);fill:url(#SVGID_100_);}
	.st70{opacity:0.6;clip-path:url(#SVGID_99_);}
	.st71{clip-path:url(#SVGID_102_);}
	.st72{opacity:0.6;clip-path:url(#SVGID_99_);fill:url(#SVGID_103_);}
	.st73{clip-path:url(#SVGID_105_);fill:url(#SVGID_106_);}
	.st74{opacity:0.6;clip-path:url(#SVGID_105_);}
	.st75{clip-path:url(#SVGID_108_);}
	.st76{opacity:0.6;clip-path:url(#SVGID_105_);fill:url(#SVGID_109_);}
	.st77{clip-path:url(#SVGID_111_);fill:url(#SVGID_112_);}
	.st78{opacity:0.6;clip-path:url(#SVGID_111_);}
	.st79{clip-path:url(#SVGID_114_);}
	.st80{opacity:0.6;clip-path:url(#SVGID_111_);fill:url(#SVGID_115_);}
	.st81{fill:url(#SVGID_116_);}
	.st82{fill:url(#SVGID_117_);}
	.st83{fill:url(#SVGID_118_);}
	.st84{fill:url(#SVGID_119_);}
	.st85{fill:url(#SVGID_120_);}
	.st86{fill:url(#SVGID_121_);}
	.st87{fill:url(#SVGID_122_);}
	.st88{fill:url(#SVGID_123_);}
	.st89{clip-path:url(#SVGID_125_);fill:url(#SVGID_126_);}
	.st90{fill:url(#SVGID_127_);}
	.st91{clip-path:url(#SVGID_129_);fill:url(#SVGID_130_);}
	.st92{clip-path:url(#SVGID_132_);fill:#FFFFFF;}
	.st93{clip-path:url(#SVGID_134_);fill:#040006;}
	.st94{fill:url(#SVGID_135_);}
	.st95{clip-path:url(#SVGID_137_);fill:url(#SVGID_138_);}
	.st96{opacity:0.7;fill:url(#SVGID_139_);}
	.st97{fill:none;stroke:#000000;stroke-miterlimit:10;}
	.st98{fill:url(#SVGID_140_);}
	.st99{fill:url(#SVGID_141_);}
	.st100{fill:url(#SVGID_142_);}
	.st101{fill:url(#SVGID_143_);}
	.st102{fill:url(#SVGID_144_);}
	.st103{fill:url(#SVGID_145_);}
	.st104{fill:url(#SVGID_146_);}
	.st105{fill:url(#SVGID_147_);}
	.st106{fill:url(#SVGID_148_);}
	.st107{fill:url(#SVGID_149_);}
	.st108{fill:url(#SVGID_150_);}
	.st109{fill:url(#SVGID_151_);}
	.st110{fill:url(#SVGID_152_);}
	.st111{fill:url(#SVGID_153_);}
	.st112{fill:url(#SVGID_154_);}
	.st113{fill:url(#SVGID_155_);}
	.st114{fill:url(#SVGID_156_);}
	.st115{fill:url(#SVGID_157_);}
	.st116{fill:url(#SVGID_158_);}
	.st117{fill:url(#SVGID_159_);}
	.st118{fill:url(#SVGID_160_);}
	.st119{fill:url(#SVGID_161_);}
	.st120{fill:url(#SVGID_162_);}
	.st121{fill:url(#SVGID_163_);}
	.st122{fill:url(#SVGID_164_);}
	.st123{opacity:0.3;fill:url(#SVGID_165_);}
	.st124{clip-path:url(#SVGID_167_);fill:url(#SVGID_168_);}
	.st125{clip-path:url(#SVGID_170_);fill:url(#SVGID_171_);}
	.st126{opacity:0.6;clip-path:url(#SVGID_170_);}
	.st127{clip-path:url(#SVGID_173_);}
	.st128{opacity:0.6;clip-path:url(#SVGID_170_);fill:url(#SVGID_174_);}
	.st129{clip-path:url(#SVGID_176_);fill:url(#SVGID_177_);}
	.st130{opacity:0.6;clip-path:url(#SVGID_176_);}
	.st131{clip-path:url(#SVGID_179_);}
	.st132{opacity:0.6;clip-path:url(#SVGID_176_);fill:url(#SVGID_180_);}
	.st133{clip-path:url(#SVGID_182_);fill:url(#SVGID_183_);}
	.st134{opacity:0.6;clip-path:url(#SVGID_182_);}
	.st135{clip-path:url(#SVGID_185_);}
	.st136{opacity:0.6;clip-path:url(#SVGID_182_);fill:url(#SVGID_186_);}
	.st137{clip-path:url(#SVGID_188_);fill:url(#SVGID_189_);}
	.st138{opacity:0.6;clip-path:url(#SVGID_188_);}
	.st139{clip-path:url(#SVGID_191_);}
	.st140{opacity:0.6;clip-path:url(#SVGID_188_);fill:url(#SVGID_192_);}
	.st141{clip-path:url(#SVGID_194_);fill:url(#SVGID_195_);}
	.st142{opacity:0.7;fill:url(#SVGID_196_);}
	.st143{opacity:0.9;fill:url(#SVGID_197_);}
	.st144{fill:url(#SVGID_198_);}
	.st145{opacity:0.3;fill:url(#SVGID_199_);}
	.st146{opacity:0.7;fill:url(#SVGID_200_);}
	.st147{opacity:0.9;fill:url(#SVGID_201_);}
	.st148{fill:url(#SVGID_202_);}
	.st149{opacity:0.3;fill:url(#SVGID_203_);}
	.st150{fill:#841E25;}
	.st151{fill:#AD272D;}
	.st152{fill:#6CA7DD;}
	.st153{fill:url(#SVGID_206_);}
	.st154{clip-path:url(#SVGID_208_);}
	.st155{opacity:0.7;fill:url(#SVGID_209_);}
	.st156{opacity:0.9;fill:url(#SVGID_210_);}
	.st157{fill:#D8D8D8;}
	.st158{fill:url(#SVGID_211_);}
	.st159{opacity:0.9;fill:url(#SVGID_212_);}
	.st160{fill:url(#SVGID_213_);}
	.st161{opacity:0.3;fill:url(#SVGID_214_);}
	.st162{fill:url(#SVGID_215_);}
	.st163{opacity:0.9;fill:url(#SVGID_216_);}
	.st164{fill:url(#SVGID_217_);}
	.st165{opacity:0.3;fill:url(#SVGID_218_);}
	.st166{clip-path:url(#SVGID_220_);fill:url(#SVGID_221_);}
	.st167{opacity:0.6;clip-path:url(#SVGID_220_);}
	.st168{clip-path:url(#SVGID_223_);}
	.st169{opacity:0.6;clip-path:url(#SVGID_220_);fill:url(#SVGID_224_);}
	.st170{clip-path:url(#SVGID_226_);}
	.st171{clip-path:url(#SVGID_226_);fill:url(#SVGID_229_);}
	.st172{opacity:0.6;clip-path:url(#SVGID_226_);}
	.st173{clip-path:url(#SVGID_231_);}
	.st174{opacity:0.6;clip-path:url(#SVGID_226_);fill:url(#SVGID_232_);}
	.st175{clip-path:url(#SVGID_234_);fill:#FFFFFF;}
	.st176{clip-path:url(#SVGID_236_);fill:#040006;}
	.st177{fill:url(#SVGID_237_);}
	.st178{fill:url(#shape_3_1_);}
	.st179{fill:url(#SVGID_238_);}
	.st180{fill-rule:evenodd;clip-rule:evenodd;fill:#FFFFFF;}
</style>
<g>
	<defs>
		<rect id="SVGID_1_" x="-1913.2" y="350.2" width="1920" height="678"/>
	</defs>
	<clipPath id="SVGID_2_">
		<use xlink:href="#SVGID_1_"  style="overflow:visible;"/>
	</clipPath>
	<g style="clip-path:url(#SVGID_2_);">
		
			<image style="overflow:visible;" width="1280" height="1014" xlink:href="3DB91795.jpg"  transform="matrix(1.5358 0 0 1.5358 -1935.2528 -17.459)">
		</image>
	</g>
</g>
<g>
	<g id="shape_4">
		
			<image style="overflow:visible;opacity:6.000000e-02;" width="564" height="563" xlink:href="3DB91797.png"  transform="matrix(0.24 0 0 0.24 -32.4147 -26.8843)">
		</image>
		<g>
			
				<image style="overflow:visible;opacity:0.15;" width="323" height="325" xlink:href="3DB91795.png"  transform="matrix(0.24 0 0 0.24 -3.7347 0.1157)">
			</image>
			<g>
				<path class="st0" d="M5.5,64.7l4.2-15.2C7.1,45,5.7,39.9,5.7,34.7c0-16.2,13.2-29.4,29.4-29.4c7.9,0,15.3,3.1,20.8,8.6
					c5.6,5.6,8.6,12.9,8.6,20.8c0,16.2-13.2,29.4-29.4,29.4c0,0,0,0,0,0h0c-4.9,0-9.8-1.2-14.1-3.6L5.5,64.7z M21.8,55.3l0.9,0.5
					c3.8,2.2,8.1,3.4,12.4,3.4h0c13.5,0,24.4-11,24.4-24.4c0-6.5-2.5-12.7-7.2-17.3c-4.6-4.6-10.8-7.2-17.3-7.2
					c-13.5,0-24.5,11-24.5,24.4c0,4.6,1.3,9.1,3.7,13l0.6,0.9l-2.5,9L21.8,55.3z"/>
			</g>
		</g>
	</g>
	<linearGradient id="shape_3_1_" gradientUnits="userSpaceOnUse" x1="34.9998" y1="63.6441" x2="34.9998" y2="6.3566">
		<stop  offset="0" style="stop-color:#20B038"/>
		<stop  offset="1" style="stop-color:#60D66A"/>
	</linearGradient>
	<path id="shape_3" class="st178" d="M6.5,63.6l4-14.7C8,44.6,6.7,39.7,6.7,34.7c0-15.7,12.7-28.4,28.4-28.4c7.6,0,14.7,3,20.1,8.3
		c5.4,5.4,8.3,12.5,8.3,20.1c0,15.7-12.7,28.4-28.4,28.4c0,0,0,0,0,0h0c-4.8,0-9.4-1.2-13.6-3.5L6.5,63.6z"/>
	<g id="shape_2">
		
			<image style="overflow:visible;opacity:4.000000e-02;" width="348" height="349" xlink:href="3DB91793.png"  transform="matrix(0.24 0 0 0.24 -6.7347 -5.7643)">
		</image>
		<g>
			<g>
				<linearGradient id="SVGID_4_" gradientUnits="userSpaceOnUse" x1="35" y1="64.6709" x2="35" y2="5.3291">
					<stop  offset="0" style="stop-color:#F9F9F9"/>
					<stop  offset="1" style="stop-color:#FFFFFF"/>
				</linearGradient>
				<path style="fill:url(#SVGID_4_);" d="M5.5,64.7l4.2-15.2C7.1,45,5.7,39.9,5.7,34.7c0-16.2,13.2-29.4,29.4-29.4
					c7.9,0,15.3,3.1,20.8,8.6c5.6,5.6,8.6,12.9,8.6,20.8c0,16.2-13.2,29.4-29.4,29.4c0,0,0,0,0,0h0c-4.9,0-9.8-1.2-14.1-3.6
					L5.5,64.7z M21.8,55.3l0.9,0.5c3.8,2.2,8.1,3.4,12.4,3.4h0c13.5,0,24.4-11,24.4-24.4c0-6.5-2.5-12.7-7.2-17.3
					c-4.6-4.6-10.8-7.2-17.3-7.2c-13.5,0-24.5,11-24.5,24.4c0,4.6,1.3,9.1,3.7,13l0.6,0.9l-2.5,9L21.8,55.3z"/>
			</g>
		</g>
	</g>
	<g id="shape_1">
		
			<image style="overflow:visible;opacity:6.000000e-02;" width="226" height="217" xlink:href="3DB9179D.png"  transform="matrix(0.24 0 0 0.24 8.1453 11.0357)">
		</image>
		<g>
			<path class="st180" d="M27.8,22.4c-0.6-1.2-1.1-1.2-1.7-1.3c-0.4,0-0.9,0-1.4,0c-0.5,0-1.3,0.2-2,0.9c-0.7,0.7-2.6,2.5-2.6,6.1
				c0,3.6,2.6,7.1,3,7.6c0.4,0.5,5.1,8.1,12.6,11.1c6.2,2.4,7.5,2,8.8,1.8c1.3-0.1,4.3-1.8,5-3.5c0.6-1.7,0.6-3.2,0.4-3.5
				c-0.2-0.3-0.7-0.5-1.4-0.9c-0.7-0.4-4.3-2.1-5-2.4s-1.2-0.4-1.7,0.4c-0.5,0.7-1.9,2.4-2.3,2.9c-0.4,0.5-0.9,0.6-1.6,0.2
				c-0.7-0.4-3.1-1.1-5.9-3.6c-2.2-1.9-3.7-4.4-4.1-5.1c-0.4-0.7,0-1.1,0.3-1.5c0.3-0.3,0.7-0.9,1.1-1.3c0.4-0.4,0.5-0.7,0.7-1.2
				c0.2-0.5,0.1-0.9-0.1-1.3C29.9,27.5,28.4,23.9,27.8,22.4z"/>
		</g>
	</g>
</g>
</svg>
